<?xml version="1.0" encoding="utf-8"?>
<!-- Generator: Adobe Illustrator 27.6.1, SVG Export Plug-In . SVG Version: 6.00 Build 0)  -->
<svg version="1.1" id="Main" xmlns="http://www.w3.org/2000/svg" x="0px" y="0px"
     viewBox="0 0 126 180" style="enable-background:new 0 0 126 180;"
     xml:space="preserve">
<style type="text/css">
	.st0{fill:#29ABE2;}
	.st1{fill:#FFFFFF;}
</style>
<path class="st0" d="M118.66,0h-0.44H8.56H7.34H0v7.06v0.72v165.16c0,0.02,0,0.04,0,0.06l0,0v7h7.34h1.22H126V8.56v-1.5V0H118.66z
	 M120.99,142.8c0,9.66-3.52,18.1-11.03,24.5c-0.28,0.24-0.55,0.47-0.83,0.7c-6.25,5.18-13.53,7.12-21.77,7.12H8.89
	c-2.14,0-3.88-1.68-3.88-3.74V8.61c0-2.06,1.75-3.74,3.88-3.74h108.22c2.14,0,3.88,1.68,3.88,3.74V142.8z"/>
<path class="st1" d="M117.7,176.81c-0.71,0-1.37-0.13-1.99-0.4s-1.16-0.63-1.62-1.09c-0.46-0.46-0.82-1-1.09-1.62
	c-0.27-0.62-0.4-1.29-0.4-1.99c0-0.71,0.13-1.37,0.4-1.99c0.27-0.62,0.63-1.16,1.09-1.62c0.46-0.46,1-0.82,1.62-1.09
	c0.62-0.27,1.29-0.4,1.99-0.4c0.71,0,1.37,0.13,1.99,0.4c0.62,0.27,1.16,0.63,1.62,1.09c0.46,0.46,0.82,1,1.09,1.62
	c0.27,0.62,0.4,1.29,0.4,1.99c0,0.71-0.13,1.37-0.4,1.99c-0.27,0.62-0.63,1.16-1.09,1.62c-0.46,0.46-1,0.82-1.62,1.09
	S118.4,176.81,117.7,176.81z M117.15,176.03v-1.05c-0.3,0-0.55-0.11-0.75-0.33c-0.2-0.22-0.31-0.48-0.31-0.78v-0.56l-2.62-2.62
	c-0.04,0.17-0.07,0.34-0.09,0.51c-0.02,0.17-0.03,0.33-0.03,0.51c0,1.11,0.36,2.08,1.08,2.9S116.05,175.9,117.15,176.03z
	 M120.91,174.65c0.19-0.2,0.35-0.42,0.49-0.65c0.14-0.23,0.26-0.47,0.36-0.72c0.1-0.25,0.17-0.51,0.22-0.77
	c0.05-0.26,0.07-0.53,0.07-0.81c0-0.9-0.25-1.72-0.74-2.46c-0.49-0.74-1.16-1.28-1.98-1.62v0.23c0,0.3-0.1,0.56-0.31,0.78
	c-0.2,0.22-0.46,0.33-0.75,0.33h-1.11v1.11c0,0.14-0.06,0.26-0.17,0.36s-0.25,0.14-0.39,0.14h-1.06v1.13h3.3
	c0.14,0,0.26,0.06,0.36,0.17c0.09,0.11,0.14,0.24,0.14,0.38v1.62h0.55c0.25,0,0.46,0.07,0.65,0.22
	C120.71,174.23,120.84,174.42,120.91,174.65z"/>
</svg>
